<?xml version="1.0" encoding="utf-8"?>
<!-- Generator: Adobe Illustrator 20.1.0, SVG Export Plug-In . SVG Version: 6.00 Build 0)  -->
<svg version="1.1" id="Layer_1" xmlns="http://www.w3.org/2000/svg" xmlns:xlink="http://www.w3.org/1999/xlink" x="0px" y="0px"
	 viewBox="0 0 16 16" style="enable-background:new 0 0 16 16;" xml:space="preserve">
<style type="text/css">
	.st0{fill:#183C82;}
</style>
<g>
	<g>
		<path class="st0" d="M9.9,9.1L9.9,9.1c-0.1,0-0.2,0.1-0.2,0.1C7.6,9.8,5.4,8.6,4.9,6.5c-0.5-2,0.5-4,2.4-4.7
			c0.1,0,0.2-0.1,0.2-0.1c2.1-0.6,4.2,0.6,4.8,2.7C12.9,6.4,11.8,8.4,9.9,9.1 M10.4,10.6c2.7-0.9,4.2-3.8,3.5-6.6
			C13,1.1,10-0.6,7.1,0.2C7,0.2,6.9,0.3,6.8,0.3C4.1,1.2,2.5,4.1,3.3,6.9c0.8,2.9,3.8,4.6,6.7,3.8C10.2,10.7,10.3,10.7,10.4,10.6
			L10.4,10.6z"/>
		<rect x="1.2" y="11.2" transform="matrix(0.4907 -0.8713 0.8713 0.4907 -8.4282 10.3972)" class="st0" width="6.9" height="2.4"/>
	</g>
	<path class="st0" d="M7.9,2.5c0.1,0,0.1,0,0.2-0.1c0.2-0.1,0.4,0.1,0.5,0.3C8.6,3,8.5,3.2,8.3,3.2C6.9,3.6,6.1,5,6.5,6.4
		c0.1,0.2-0.1,0.4-0.3,0.5C6,7,5.8,6.8,5.7,6.6C5.2,4.9,6.2,3.1,7.9,2.5z"/>
</g>
</svg>
